<?xml version="1.0" encoding="UTF-8"?>
<!DOCTYPE svg PUBLIC "-//W3C//DTD SVG 1.1//EN" "http://www.w3.org/Graphics/SVG/1.1/DTD/svg11.dtd">
<svg version="1.1" xmlns="http://www.w3.org/2000/svg" xmlns:xlink="http://www.w3.org/1999/xlink" x="0" y="0" width="1700" height="180" viewBox="0, 0, 1700, 180">
  <g id="Layer_1">
    <path d="M57.942,23.482 C29.754,23.482 10.788,37.402 10.788,59.5 C10.788,102.652 75.69,89.254 75.69,112.222 C75.69,119.704 68.904,123.88 57.594,123.88 C44.718,123.88 26.97,116.746 14.442,105.61 L3.48,128.056 C17.226,139.714 37.236,147.37 57.246,147.37 C84.216,147.37 104.922,134.494 104.922,110.656 C105.096,66.808 40.194,79.336 40.194,56.89 C40.194,50.278 46.458,46.972 55.68,46.972 C65.424,46.972 80.736,51.844 93.612,59.5 L104.226,36.706 C92.046,28.702 74.994,23.482 57.942,23.482 z" fill="#FFFFFF"/>
    <path d="M210.192,52.888 L183.396,52.888 L161.298,117.268 L136.764,52.888 L109.098,52.888 L147.9,144.586 L145.29,149.806 C142.68,155.374 138.504,158.158 132.936,158.158 C128.586,158.158 124.932,156.592 120.756,153.112 L109.446,172.426 C117.102,178.69 124.932,181.474 134.85,181.474 C151.032,181.474 162.516,173.47 169.128,156.94 z" fill="#FFFFFF"/>
    <path d="M306.414,52.888 L279.792,52.888 L279.792,65.59 C273.354,56.89 263.61,51.844 250.908,52.018 C227.07,52.018 210.714,69.94 210.714,96.388 C210.714,123.532 227.418,141.628 251.604,141.628 C263.958,141.628 273.528,136.756 279.792,128.056 L279.792,138.67 C279.792,151.372 270.048,159.55 254.736,159.55 C244.122,159.55 234.204,156.244 225.678,150.154 L215.76,168.946 C226.548,176.254 240.642,181.3 256.476,181.3 C286.404,181.3 306.414,164.422 306.414,137.8 z M257.868,121.27 C244.644,121.27 235.944,111.352 235.77,97.084 C235.944,82.816 244.818,72.724 257.868,72.724 C270.918,72.724 279.792,82.642 279.792,97.084 C279.792,111.352 270.918,121.27 257.868,121.27 z" fill="#FFFFFF"/>
    <path d="M344.346,11.302 C335.82,11.302 329.904,17.566 329.904,26.266 C329.904,34.966 335.82,41.23 344.346,41.23 C352.872,41.23 358.788,34.966 358.788,26.266 C358.788,17.566 352.872,11.302 344.346,11.302 z M357.744,146.5 L357.744,52.888 L330.948,52.888 L330.948,146.5 z" fill="#FFFFFF"/>
    <path d="M423.516,52.018 C394.806,52.018 375.492,71.332 375.492,100.042 C375.492,128.404 394.806,147.544 423.168,147.544 C442.308,147.544 456.924,139.888 464.754,126.838 L446.31,114.31 C441.612,121.618 434.13,125.272 424.56,125.272 C411.51,125.272 402.288,115.006 402.288,99.868 C402.288,84.904 411.51,74.812 424.56,74.812 C433.782,74.638 440.916,78.466 445.962,84.73 L464.058,71.68 C455.706,59.152 441.438,52.018 423.516,52.018 z" fill="#FFFFFF"/>
    <path d="M613.698,48.016 L613.698,24.7 L511.908,24.7 L511.908,48.016 L548.97,48.016 L548.97,146.5 L576.462,146.5 L576.462,48.016 z" fill="#FFFFFF"/>
    <path d="M650.412,52.888 L623.616,52.888 L623.616,146.5 L650.412,146.5 L650.412,101.434 C650.412,85.6 662.244,75.334 681.384,77.074 L681.384,51.844 C667.464,52.018 656.85,58.282 650.412,69.766 z" fill="#FFFFFF"/>
    <path d="M747.156,146.5 L773.43,146.5 L773.256,85.426 C773.082,64.372 758.64,51.844 733.584,51.844 C717.228,51.844 705.222,55.672 691.302,62.632 L699.654,81.076 C709.398,75.682 719.142,72.898 727.494,72.898 C740.37,72.898 746.982,78.64 746.982,88.558 L746.982,90.298 L721.23,90.298 C698.262,90.472 685.56,100.912 685.56,118.486 C685.56,135.538 697.74,147.718 717.75,147.718 C730.8,147.718 740.892,143.368 747.156,135.538 z M725.232,128.578 C716.184,128.578 710.616,123.88 710.616,116.746 C710.616,109.264 715.662,106.132 725.928,106.132 L746.982,106.132 L746.982,114.484 C745.416,122.488 736.542,128.578 725.232,128.578 z" fill="#FFFFFF"/>
    <path d="M844.422,146.5 L879.744,52.888 L853.122,52.888 L831.198,121.096 L809.1,52.888 L781.434,53.062 L816.93,146.5 z" fill="#FFFFFF"/>
    <path d="M928.638,52.018 C900.102,52.018 880.44,71.158 880.44,100.042 C880.44,128.404 899.406,147.544 929.334,147.544 C946.212,147.544 959.958,141.454 969.354,131.014 L955.26,116.746 C948.822,123.184 940.47,126.664 931.596,126.664 C919.59,126.664 910.542,119.704 907.41,107.872 L974.574,107.872 C976.836,73.768 961.524,52.018 928.638,52.018 z M906.888,92.038 C908.976,79.684 916.98,71.68 928.812,71.68 C941.166,71.68 949.17,79.684 949.518,92.038 z" fill="#FFFFFF"/>
    <path d="M1019.988,146.5 L1019.988,17.392 L993.192,17.392 L993.192,146.5 z" fill="#FFFFFF"/>
    <path d="M1133.784,23.482 C1105.596,23.482 1086.63,37.402 1086.63,59.5 C1086.63,102.652 1151.532,89.254 1151.532,112.222 C1151.532,119.704 1144.746,123.88 1133.436,123.88 C1120.56,123.88 1102.812,116.746 1090.284,105.61 L1079.322,128.056 C1093.068,139.714 1113.078,147.37 1133.088,147.37 C1160.058,147.37 1180.764,134.494 1180.764,110.656 C1180.938,66.808 1116.036,79.336 1116.036,56.89 C1116.036,50.278 1122.3,46.972 1131.522,46.972 C1141.266,46.972 1156.578,51.844 1169.454,59.5 L1180.068,36.706 C1167.888,28.702 1150.836,23.482 1133.784,23.482 z" fill="#FFFFFF"/>
    <path d="M1200.078,24.7 L1200.078,146.5 L1250.712,146.5 C1289.166,146.5 1315.788,121.444 1315.788,85.6 C1315.788,49.582 1289.514,24.7 1251.756,24.7 z M1227.57,47.842 L1251.234,47.842 C1272.114,47.842 1287.774,63.328 1287.774,85.774 C1287.774,108.046 1272.81,123.358 1252.452,123.358 L1227.57,123.358 z" fill="#FFFFFF"/>
    <path d="M1413.924,146.5 L1446.984,146.5 L1398.09,75.508 L1443.852,24.7 L1412.01,24.7 L1361.376,80.032 L1361.376,24.7 L1333.884,24.7 L1333.884,146.5 L1361.376,146.5 L1361.376,116.398 L1378.95,96.91 z" fill="#FFFFFF"/>
    <g id="kufr">
      <path d="M1610.114,47.977 L1551.258,47.977 L1533.215,47.977 C1523.867,47.977 1516.185,55.594 1516.185,64.921 L1516.185,64.921 L1516.185,123.291 C1516.185,132.617 1523.867,140.018 1533.215,140.018 L1533.215,140.018 L1628.091,140.018 C1637.439,140.018 1645.05,132.562 1645.05,123.236 L1645.05,123.236 L1645.05,64.867 C1645.05,55.54 1637.439,47.977 1628.091,47.977 L1628.091,47.977 z M1562.444,47.977 L1598.929,47.977 z" fill-opacity="0" stroke="#FFFFFF" stroke-width="10"/>
      <path d="M1531.193,66.596 C1522.905,66.596 1516.186,72.965 1516.186,80.821 L1516.186,80.821 L1516.186,125.887 C1516.186,133.743 1522.905,140.111 1531.193,140.111 L1531.193,140.111 L1630.067,140.111 C1638.355,140.111 1645.074,133.743 1645.074,125.887 L1645.074,125.887 L1645.074,80.821 C1645.074,72.965 1638.355,66.596 1630.067,66.596 L1630.067,66.596 z" fill-opacity="0" stroke="#FFFFFF" stroke-width="10"/>
      <path d="M1645.214,116.293 C1633.882,116.426 1624.318,125.628 1624.27,136.975" fill-opacity="0" stroke="#FFFFFF" stroke-width="10"/>
      <path d="M1536.867,136.975 C1536.733,125.641 1527.532,116.077 1516.185,116.029" fill-opacity="0" stroke="#FFFFFF" stroke-width="10"/>
      <path d="M1516.185,90.724 C1527.518,90.59 1537.082,81.388 1537.13,70.041" fill-opacity="0" stroke="#FFFFFF" stroke-width="10"/>
      <path d="M1624.532,69.03 C1624.666,80.362 1633.867,89.927 1645.214,89.974" fill-opacity="0" stroke="#FFFFFF" stroke-width="10"/>
      <path d="M1623.858,62.628 L1623.858,48.44" fill-opacity="0" stroke="#FFFFFF" stroke-width="10"/>
      <path d="M1537.13,62.628 L1537.13,48.44" fill-opacity="0" stroke="#FFFFFF" stroke-width="10"/>
      <path d="M1556.886,62.632 L1556.856,42.863 C1556.856,35.693 1562.712,29.889 1569.899,29.889 L1591.012,29.889 C1598.197,29.889 1604.106,35.693 1604.106,42.863 L1604.092,62.632" fill-opacity="0" stroke="#FFFFFF" stroke-width="10"/>
    </g>
  </g>
</svg>
